<svg width="49" height="48" viewBox="0 0 49 48" fill="none" xmlns="http://www.w3.org/2000/svg">
<path opacity="0.5" d="M39.5005 29.4125L30.0685 24L39.5005 18.9109L42.9853 10L31.4926 17L20 24L31.4926 31L42.9853 38L39.5005 29.4125Z" fill="url(#paint0_linear)"/>
<path opacity="0.5" d="M47.6724 23.9997L40.2111 26.9775L35 23.9997L40.2111 21.0219L47.6724 23.9997Z" fill="url(#paint1_linear)"/>
<g filter="url(#filter0_f)">
<path fill-rule="evenodd" clip-rule="evenodd" d="M20.0685 24L29.5005 29.4125L32.9853 38L21.4926 31L10 24L21.4926 17L32.9853 10L29.5005 18.9109L20.0685 24ZM31.5386 26.9775L39 23.9997L31.5386 21.0219L26.3276 23.9997L31.5386 26.9775Z" fill="#9794C6"/>
</g>
<g filter="url(#filter1_d)">
<path fill-rule="evenodd" clip-rule="evenodd" d="M20.0685 24L29.5005 29.4125L32.9853 38L21.4926 31L10 24L21.4926 17L32.9853 10L29.5005 18.9109L20.0685 24ZM31.5386 26.9775L39 23.9997L31.5386 21.0219L26.3276 23.9997L31.5386 26.9775Z" fill="url(#paint2_linear)"/>
</g>
<defs>
<filter id="filter0_f" x="0" y="0" width="49" height="48" filterUnits="userSpaceOnUse" color-interpolation-filters="sRGB">
<feFlood flood-opacity="0" result="BackgroundImageFix"/>
<feBlend mode="normal" in="SourceGraphic" in2="BackgroundImageFix" result="shape"/>
<feGaussianBlur stdDeviation="5" result="effect1_foregroundBlur"/>
</filter>
<filter id="filter1_d" x="6" y="7" width="37" height="36" filterUnits="userSpaceOnUse" color-interpolation-filters="sRGB">
<feFlood flood-opacity="0" result="BackgroundImageFix"/>
<feColorMatrix in="SourceAlpha" type="matrix" values="0 0 0 0 0 0 0 0 0 0 0 0 0 0 0 0 0 0 127 0"/>
<feOffset dy="1"/>
<feGaussianBlur stdDeviation="2"/>
<feColorMatrix type="matrix" values="0 0 0 0 0 0 0 0 0 0 0 0 0 0 0 0 0 0 0.5 0"/>
<feBlend mode="normal" in2="BackgroundImageFix" result="effect1_dropShadow"/>
<feBlend mode="normal" in="SourceGraphic" in2="effect1_dropShadow" result="shape"/>
</filter>
<linearGradient id="paint0_linear" x1="20" y1="24" x2="42.9853" y2="24" gradientUnits="userSpaceOnUse">
<stop stop-color="#9794C6"/>
<stop offset="1" stop-color="#9794C6" stop-opacity="0"/>
</linearGradient>
<linearGradient id="paint1_linear" x1="35" y1="23.9997" x2="47.6724" y2="23.9997" gradientUnits="userSpaceOnUse">
<stop stop-color="#9794C6"/>
<stop offset="1" stop-color="#9794C6" stop-opacity="0"/>
</linearGradient>
<linearGradient id="paint2_linear" x1="10" y1="24" x2="39" y2="24" gradientUnits="userSpaceOnUse">
<stop stop-color="#F5EDFF"/>
<stop offset="1" stop-color="#CABDDB"/>
</linearGradient>
</defs>
</svg>
