<svg width="28" height="28" viewBox="0 0 28 28" fill="none" xmlns="http://www.w3.org/2000/svg">
<rect opacity="0.2" x="14" y="0.707107" width="18.799" height="18.799" transform="rotate(45 14 0.707107)" stroke="#9794C6"/>
<path d="M23.7494 11.7658C24.112 11.3671 24.077 10.756 23.6713 10.4012L14.733 2.58013C14.3273 2.22535 13.6769 2.23278 13.2797 2.59689L4.31106 10.8181C3.91389 11.1823 3.8944 11.7926 4.2679 12.1808L4.49275 12.415C4.8658 12.8033 5.46878 12.8496 5.8387 12.5181L6.50897 11.9179V20.7056C6.50897 21.2447 6.94584 21.6812 7.4846 21.6812H10.9806C11.5194 21.6812 11.9562 21.2447 11.9562 20.7056V14.5577H16.4154V20.7056C16.4077 21.2444 16.7932 21.6808 17.3319 21.6808H21.0368C21.5756 21.6808 22.0125 21.2444 22.0125 20.7052V12.0416C22.0125 12.0416 22.1976 12.2038 22.426 12.4045C22.654 12.6049 23.1328 12.4442 23.4954 12.0451L23.7494 11.7658Z" fill="#9794C6"/>
<path d="M23.7494 11.7658C24.112 11.3671 24.077 10.756 23.6713 10.4012L14.733 2.58013C14.3273 2.22535 13.6769 2.23278 13.2797 2.59689L4.31106 10.8181C3.91389 11.1823 3.8944 11.7926 4.2679 12.1808L4.49275 12.415C4.8658 12.8033 5.46878 12.8496 5.8387 12.5181L6.50897 11.9179V20.7056C6.50897 21.2447 6.94584 21.6812 7.4846 21.6812H10.9806C11.5194 21.6812 11.9562 21.2447 11.9562 20.7056V14.5577H16.4154V20.7056C16.4077 21.2444 16.7932 21.6808 17.3319 21.6808H21.0368C21.5756 21.6808 22.0125 21.2444 22.0125 20.7052V12.0416C22.0125 12.0416 22.1976 12.2038 22.426 12.4045C22.654 12.6049 23.1328 12.4442 23.4954 12.0451L23.7494 11.7658Z" fill="url(#paint0_linear)"/>
<defs>
<linearGradient id="paint0_linear" x1="14" y1="2.31885" x2="14" y2="21.6812" gradientUnits="userSpaceOnUse">
<stop stop-color="#F5EDFF"/>
<stop offset="1" stop-color="#CABDDB"/>
</linearGradient>
</defs>
</svg>
